<?xml version="1.0" encoding="iso-8859-1"?>
<!-- Uploaded to: SVG Repo, www.svgrepo.com, Generator: SVG Repo Mixer Tools -->
<svg fill="#000000" height="800px" width="800px" version="1.1" id="Layer_1" xmlns="http://www.w3.org/2000/svg" xmlns:xlink="http://www.w3.org/1999/xlink" 
	 viewBox="0 0 485 485" xml:space="preserve">
<g>
	<path d="M485,141.748V76.926L308.644,0H176.356L0,76.926v64.822h159.45L67.511,455H0v30h485v-30h-67.511L325.55,141.748H485z
		 M194.485,111.748V30h96.029v81.748H194.485z M455,111.748H320.515v-73.84L455,96.57V111.748z M30,96.57l134.485-58.663v73.84H30
		V96.57z M372.125,455h-259.25L242.5,313.804L372.125,455z M262.863,291.624l57.142-62.243l53.706,182.985L262.863,291.624z
		 M111.289,412.366l53.706-182.985l57.142,62.243L111.289,412.366z M310.139,195.766L242.5,269.442l-67.639-73.676l15.854-54.018
		h103.569L310.139,195.766z"/>
</g>
</svg>